G04*
G04 #@! TF.GenerationSoftware,Altium Limited,Altium Designer,24.1.2 (44)*
G04*
G04 Layer_Physical_Order=1*
G04 Layer_Color=255*
%FSLAX25Y25*%
%MOIN*%
G70*
G04*
G04 #@! TF.SameCoordinates,1F2B22B6-C7F4-4D77-9554-8AD25EDC8032*
G04*
G04*
G04 #@! TF.FilePolarity,Positive*
G04*
G01*
G75*
%ADD10C,0.01000*%
%ADD13R,0.03000X0.00800*%
%ADD14R,0.00800X0.03000*%
%ADD15R,0.15800X0.15800*%
%ADD23R,0.05500X0.04500*%
%ADD24R,0.02362X0.03543*%
%ADD25R,0.03543X0.02362*%
%ADD26R,0.02362X0.03150*%
%ADD27R,0.01378X0.15748*%
%ADD28C,0.01200*%
%ADD29C,0.00800*%
%ADD30C,0.02000*%
%ADD31C,0.05906*%
%ADD32C,0.04000*%
%ADD33R,0.04000X0.04000*%
%ADD34C,0.03150*%
G36*
X121326Y137627D02*
Y22016D01*
X103574Y4265D01*
X83071D01*
X82644Y4180D01*
X82282Y3938D01*
X82041Y3576D01*
X81956Y3150D01*
X81964Y3106D01*
X81956Y3062D01*
Y-4397D01*
X44816D01*
Y3150D01*
X44731Y3576D01*
X44489Y3938D01*
X44128Y4180D01*
X43701Y4265D01*
X23752D01*
X5446Y22570D01*
Y137333D01*
X23690Y155578D01*
X103376D01*
X121326Y137627D01*
D02*
G37*
%LPC*%
G36*
X104418Y151684D02*
X103456D01*
X102527Y151435D01*
X101694Y150954D01*
X101014Y150274D01*
X100533Y149441D01*
X100284Y148512D01*
Y147551D01*
X100533Y146622D01*
X101014Y145789D01*
X101694Y145109D01*
X102527Y144628D01*
X103456Y144379D01*
X104418D01*
X105347Y144628D01*
X106180Y145109D01*
X106860Y145789D01*
X107341Y146622D01*
X107590Y147551D01*
Y148512D01*
X107341Y149441D01*
X106860Y150274D01*
X106180Y150954D01*
X105347Y151435D01*
X104418Y151684D01*
D02*
G37*
G36*
X23709D02*
X22748D01*
X21818Y151435D01*
X20986Y150954D01*
X20305Y150274D01*
X19825Y149441D01*
X19576Y148512D01*
Y147551D01*
X19825Y146622D01*
X20305Y145789D01*
X20986Y145109D01*
X21818Y144628D01*
X22748Y144379D01*
X23709D01*
X24638Y144628D01*
X25471Y145109D01*
X26151Y145789D01*
X26632Y146622D01*
X26881Y147551D01*
Y148512D01*
X26632Y149441D01*
X26151Y150274D01*
X25471Y150954D01*
X24638Y151435D01*
X23709Y151684D01*
D02*
G37*
G36*
X18123Y146098D02*
X17161D01*
X16232Y145849D01*
X15399Y145368D01*
X14719Y144688D01*
X14238Y143855D01*
X13989Y142926D01*
Y141964D01*
X14238Y141035D01*
X14493Y140594D01*
X14128Y140227D01*
X13582Y140543D01*
X12576Y140812D01*
X11536D01*
X10530Y140543D01*
X9629Y140022D01*
X9615Y140008D01*
X12410Y137213D01*
X15205Y134418D01*
X15219Y134432D01*
X15739Y135334D01*
X16009Y136339D01*
Y137380D01*
X15739Y138385D01*
X15424Y138931D01*
X15790Y139297D01*
X16232Y139041D01*
X17161Y138793D01*
X18123D01*
X19052Y139041D01*
X19885Y139522D01*
X20565Y140202D01*
X21046Y141035D01*
X21295Y141964D01*
Y142926D01*
X21046Y143855D01*
X20565Y144688D01*
X19885Y145368D01*
X19052Y145849D01*
X18123Y146098D01*
D02*
G37*
G36*
X110004D02*
X109042D01*
X108113Y145849D01*
X107280Y145368D01*
X106600Y144688D01*
X106119Y143855D01*
X105870Y142926D01*
Y141964D01*
X106119Y141035D01*
X106600Y140202D01*
X107280Y139522D01*
X108113Y139041D01*
X109042Y138793D01*
X110004D01*
X110933Y139041D01*
X111375Y139297D01*
X111741Y138931D01*
X111426Y138385D01*
X111156Y137380D01*
Y136339D01*
X111426Y135334D01*
X111946Y134432D01*
X111961Y134418D01*
X114756Y137213D01*
X117551Y140008D01*
X117536Y140022D01*
X116635Y140543D01*
X115630Y140812D01*
X114589D01*
X113584Y140543D01*
X113038Y140227D01*
X112672Y140594D01*
X112927Y141035D01*
X113176Y141964D01*
Y142926D01*
X112927Y143855D01*
X112446Y144688D01*
X111766Y145368D01*
X110933Y145849D01*
X110004Y146098D01*
D02*
G37*
G36*
X118258Y139301D02*
X115816Y136859D01*
X118258Y134418D01*
X118272Y134432D01*
X118793Y135334D01*
X119062Y136339D01*
Y137380D01*
X118793Y138385D01*
X118272Y139286D01*
X118258Y139301D01*
D02*
G37*
G36*
X8907Y139301D02*
X8893Y139286D01*
X8373Y138385D01*
X8103Y137380D01*
Y136339D01*
X8373Y135334D01*
X8893Y134432D01*
X8907Y134418D01*
X11349Y136859D01*
X8907Y139301D01*
D02*
G37*
G36*
X115109Y136152D02*
X112668Y133711D01*
X112682Y133696D01*
X113584Y133176D01*
X114589Y132906D01*
X115630D01*
X116635Y133176D01*
X117536Y133696D01*
X117551Y133711D01*
X115109Y136152D01*
D02*
G37*
G36*
X12056Y136152D02*
X9615Y133711D01*
X9629Y133696D01*
X10530Y133176D01*
X11536Y132906D01*
X12576D01*
X13582Y133176D01*
X14483Y133696D01*
X14498Y133711D01*
X12056Y136152D01*
D02*
G37*
G36*
X72042Y140153D02*
X71137D01*
X70301Y139807D01*
X69661Y139167D01*
X69314Y138331D01*
Y137426D01*
X69469Y137051D01*
X69142Y136724D01*
X68854Y136294D01*
X68753Y135786D01*
Y134725D01*
X46375D01*
Y134071D01*
X46343D01*
Y125697D01*
X47450D01*
Y124697D01*
X46343D01*
Y116323D01*
X47532D01*
Y117430D01*
X48531D01*
Y116323D01*
X49666D01*
Y113504D01*
X49666Y113504D01*
X49751Y113075D01*
X49994Y112711D01*
X55951Y106754D01*
X56315Y106511D01*
X56744Y106426D01*
X56744Y106426D01*
X61414D01*
X61486Y106294D01*
X61567Y105926D01*
X61005Y105364D01*
X60659Y104528D01*
Y103623D01*
X61005Y102787D01*
X61645Y102147D01*
X62481Y101800D01*
X63386D01*
X63451Y101827D01*
X63886Y101393D01*
X63709Y100968D01*
X63709D01*
Y96024D01*
X64626D01*
Y93359D01*
X58996D01*
Y94095D01*
X58910Y94524D01*
X58667Y94888D01*
X58667Y94888D01*
X58292Y95262D01*
X58484Y95724D01*
X59146D01*
Y96832D01*
X60146D01*
Y95724D01*
X61827D01*
Y97996D01*
X60719D01*
Y98996D01*
X61827D01*
Y101268D01*
X60146D01*
Y100160D01*
X59146D01*
Y101268D01*
X57465D01*
Y98996D01*
X58572D01*
Y97996D01*
X57465D01*
Y96743D01*
X57003Y96552D01*
X54070Y99484D01*
X53707Y99727D01*
X53277Y99813D01*
X53277Y99813D01*
X31708D01*
X28438Y103083D01*
Y105850D01*
X24676D01*
Y100906D01*
X27442D01*
X30300Y98048D01*
X30093Y97548D01*
X28438D01*
Y98898D01*
X24676D01*
Y93955D01*
X28438D01*
Y95305D01*
X52435D01*
X53919Y93821D01*
X53728Y93359D01*
X52050D01*
Y89215D01*
X51537Y88895D01*
X47586D01*
Y86695D01*
Y81971D01*
Y77893D01*
X39679D01*
X39610Y78060D01*
X38970Y78700D01*
X38134Y79046D01*
X37229D01*
X36393Y78700D01*
X35753Y78060D01*
X35407Y77224D01*
Y76319D01*
X35753Y75483D01*
X36393Y74843D01*
X37229Y74497D01*
X38134D01*
X38970Y74843D01*
X39610Y75483D01*
X39679Y75650D01*
X40979D01*
X41171Y75188D01*
X38301Y72319D01*
X38134Y72388D01*
X37229D01*
X36393Y72041D01*
X35753Y71401D01*
X35407Y70565D01*
Y69660D01*
X35753Y68824D01*
X36393Y68184D01*
X37229Y67838D01*
X38134D01*
X38970Y68184D01*
X39610Y68824D01*
X39956Y69660D01*
Y70565D01*
X39887Y70732D01*
X43230Y74075D01*
X47586D01*
Y70947D01*
Y66223D01*
X51578D01*
Y66181D01*
X52050Y65710D01*
Y61789D01*
X49827D01*
X49827Y61789D01*
X49398Y61704D01*
X49034Y61461D01*
X48309Y60736D01*
X48066Y60372D01*
X47981Y59943D01*
X47981Y59943D01*
Y58750D01*
X47221D01*
Y53807D01*
X47369D01*
Y51814D01*
X47189D01*
Y46871D01*
X47369D01*
Y44659D01*
X47221D01*
Y39716D01*
X50984D01*
Y40376D01*
X51786D01*
X51981Y40181D01*
X52817Y39834D01*
X53722D01*
X54558Y40181D01*
X55198Y40821D01*
X55545Y41657D01*
Y42562D01*
X55198Y43398D01*
X54558Y44038D01*
X53722Y44384D01*
X52817D01*
X51981Y44038D01*
X51786Y43842D01*
X50984D01*
Y44659D01*
X50836D01*
Y46871D01*
X50951D01*
Y51814D01*
X50836D01*
Y53807D01*
X50984D01*
Y58750D01*
X50224D01*
Y59478D01*
X50292Y59546D01*
X55213D01*
Y57109D01*
X56321D01*
Y56109D01*
X55213D01*
Y53360D01*
X58464D01*
Y54467D01*
X59464D01*
Y53360D01*
X61424D01*
X61616Y52898D01*
X61077Y52359D01*
X55514D01*
Y46459D01*
X60020D01*
Y44590D01*
X59339D01*
Y39647D01*
X63102D01*
Y44590D01*
X62263D01*
Y46459D01*
X62414D01*
Y50523D01*
X65133Y53243D01*
X65133Y53243D01*
X65376Y53607D01*
X65413Y53794D01*
X65913Y53745D01*
Y53559D01*
X72813D01*
Y55318D01*
X74297D01*
Y54660D01*
X79241D01*
Y58423D01*
X74297D01*
Y57765D01*
X72813D01*
Y59459D01*
X72814D01*
X72928Y59912D01*
X73179D01*
X73179Y59912D01*
X73608Y59997D01*
X73972Y60241D01*
X74415Y60684D01*
X74415Y60684D01*
X74658Y61048D01*
X74744Y61477D01*
Y62039D01*
X81115D01*
X81142Y61974D01*
X81338Y61779D01*
Y58423D01*
X80599D01*
Y54660D01*
X85543D01*
Y58423D01*
X84804D01*
Y61530D01*
X87644D01*
X88307Y61662D01*
X88869Y62037D01*
X89364Y62532D01*
X91856D01*
Y62680D01*
X93413D01*
Y62532D01*
X98356D01*
Y66294D01*
X93413D01*
Y66146D01*
X91856D01*
Y66294D01*
X86913D01*
Y64996D01*
X84555D01*
X84359Y65191D01*
X83523Y65538D01*
X82618D01*
X81782Y65191D01*
X81142Y64552D01*
X81115Y64486D01*
X74722D01*
Y65710D01*
X75235Y66223D01*
X79186D01*
Y67776D01*
X80745D01*
X81090Y67845D01*
X100246D01*
Y66294D01*
X100046D01*
Y62532D01*
X104989D01*
Y66294D01*
X102693D01*
Y69528D01*
X103351D01*
Y74472D01*
X100524D01*
X100333Y74934D01*
X101921Y76522D01*
X102209Y76952D01*
X102310Y77459D01*
Y77688D01*
X103262D01*
Y82632D01*
X103115D01*
Y84440D01*
X103310Y84635D01*
X103656Y85471D01*
Y86376D01*
X103310Y87212D01*
X102670Y87852D01*
X101834Y88199D01*
X100929D01*
X100093Y87852D01*
X99453Y87212D01*
X99107Y86376D01*
Y85471D01*
X99453Y84635D01*
X99648Y84440D01*
Y82632D01*
X99500D01*
Y77850D01*
X96148Y74497D01*
X96106D01*
X95978Y74472D01*
X93644D01*
Y70088D01*
X82130D01*
X81967Y70588D01*
X82281Y70951D01*
X85777D01*
X85777Y70951D01*
X86206Y71036D01*
X86570Y71279D01*
X93148Y77857D01*
X93555Y77688D01*
Y77688D01*
X97317D01*
Y82632D01*
X93555D01*
Y80941D01*
X93524D01*
X93095Y80856D01*
X92731Y80613D01*
X92731Y80613D01*
X85312Y73194D01*
X79186D01*
Y78821D01*
Y83524D01*
X94112D01*
X94112Y83524D01*
X94541Y83609D01*
X94905Y83853D01*
X106571Y95518D01*
X106571Y95518D01*
X106814Y95882D01*
X106899Y96311D01*
X106899Y96311D01*
Y103414D01*
X107226D01*
Y108358D01*
X106899D01*
Y109871D01*
X107659D01*
Y114420D01*
X103897D01*
Y109871D01*
X104656D01*
Y108358D01*
X103464D01*
Y103414D01*
X104656D01*
Y96776D01*
X93648Y85767D01*
X92962D01*
X92770Y86229D01*
X102174Y95633D01*
X102174Y95633D01*
X102418Y95997D01*
X102463Y96224D01*
X102670Y96310D01*
X103310Y96950D01*
X103656Y97786D01*
Y98691D01*
X103310Y99527D01*
X102670Y100167D01*
X101834Y100514D01*
X100929D01*
X100093Y100167D01*
X99453Y99527D01*
X99107Y98691D01*
Y97786D01*
X99453Y96950D01*
X99886Y96517D01*
X90711Y87342D01*
X81428D01*
X81237Y87804D01*
X81952Y88519D01*
X81952Y88519D01*
X82195Y88883D01*
X82280Y89312D01*
Y101597D01*
X82280Y101597D01*
X82195Y102026D01*
X81952Y102390D01*
X81952Y102390D01*
X69840Y114501D01*
X69476Y114745D01*
X69047Y114830D01*
X69047Y114830D01*
X63398D01*
X62933Y115296D01*
Y116323D01*
X64067D01*
Y117430D01*
X65067D01*
Y116323D01*
X66823D01*
Y117430D01*
X67823D01*
Y116323D01*
X69012D01*
Y116623D01*
X71509D01*
Y115883D01*
X71610Y115376D01*
X71897Y114946D01*
X80221Y106622D01*
X80651Y106334D01*
X81159Y106234D01*
X85835D01*
Y105757D01*
X90779D01*
Y106234D01*
X93627D01*
Y105678D01*
X94057D01*
X94250Y105178D01*
X93931Y104409D01*
Y103504D01*
X94278Y102668D01*
X94918Y102028D01*
X95754Y101682D01*
X96659D01*
X97495Y102028D01*
X98135Y102668D01*
X98481Y103504D01*
Y104409D01*
X98163Y105178D01*
X98355Y105678D01*
X98570D01*
Y109440D01*
X93627D01*
Y108885D01*
X90779D01*
Y109519D01*
X85835D01*
Y108885D01*
X81708D01*
X74469Y116123D01*
X74677Y116623D01*
X76657D01*
Y116323D01*
X77846D01*
Y117430D01*
X78847D01*
Y116323D01*
X79844D01*
X80035Y116323D01*
X80221Y116623D01*
X80221Y116623D01*
X80221Y116746D01*
Y124697D01*
X78928D01*
Y125697D01*
X80221D01*
Y134725D01*
X76916D01*
Y135445D01*
X78235Y136764D01*
X85495D01*
X86982Y135278D01*
Y130661D01*
X85835D01*
Y126898D01*
X90779D01*
Y130661D01*
X89633D01*
Y135827D01*
X89532Y136334D01*
X89244Y136764D01*
X86982Y139027D01*
X86552Y139314D01*
X86044Y139415D01*
X77686D01*
X77179Y139314D01*
X76749Y139027D01*
X74653Y136931D01*
X74509Y136716D01*
X74478Y136705D01*
X74040Y136729D01*
X73753Y137158D01*
X73864Y137426D01*
Y138331D01*
X73518Y139167D01*
X72878Y139807D01*
X72042Y140153D01*
D02*
G37*
G36*
X90779Y124716D02*
X85835D01*
Y120954D01*
X90779D01*
Y121611D01*
X103834D01*
X106456Y118990D01*
Y116170D01*
X110218D01*
Y120720D01*
X108186D01*
X105206Y123700D01*
X104809Y123965D01*
X104341Y124058D01*
X90779D01*
Y124716D01*
D02*
G37*
G36*
X91079Y115764D02*
X88807D01*
Y114656D01*
X87807D01*
Y115764D01*
X85535D01*
Y114083D01*
X86643D01*
Y113083D01*
X85535D01*
Y111402D01*
X87807D01*
Y112509D01*
X88807D01*
Y111402D01*
X91079D01*
Y113083D01*
X89971D01*
Y114083D01*
X91079D01*
Y115764D01*
D02*
G37*
G36*
X98870Y115685D02*
X96599D01*
Y114577D01*
X95599D01*
Y115685D01*
X93327D01*
Y114004D01*
X94434D01*
Y113004D01*
X93327D01*
Y111323D01*
X95599D01*
Y112431D01*
X96599D01*
Y111323D01*
X98870D01*
Y113004D01*
X97763D01*
Y114004D01*
X98870D01*
Y115685D01*
D02*
G37*
G36*
X113077Y114720D02*
X111396D01*
Y113613D01*
X110396D01*
Y114720D01*
X108715D01*
Y112646D01*
X109823D01*
Y111646D01*
X108715D01*
Y109571D01*
X110396D01*
Y110679D01*
X111396D01*
Y109571D01*
X113077D01*
Y111646D01*
X111970D01*
Y112646D01*
X113077D01*
Y114720D01*
D02*
G37*
G36*
X14754Y111379D02*
X12254D01*
Y108879D01*
X14754D01*
Y111379D01*
D02*
G37*
G36*
X11254D02*
X8754D01*
Y108879D01*
X11254D01*
Y111379D01*
D02*
G37*
G36*
X113471Y108658D02*
X111790D01*
Y107550D01*
X110790D01*
Y108658D01*
X109109D01*
Y106386D01*
X110216D01*
Y105386D01*
X109109D01*
Y103114D01*
X110790D01*
Y104222D01*
X111790D01*
Y103114D01*
X113471D01*
Y105386D01*
X112363D01*
Y106386D01*
X113471D01*
Y108658D01*
D02*
G37*
G36*
X14754Y107879D02*
X11754D01*
X8754D01*
Y105379D01*
X9282D01*
X9503Y104879D01*
X9237Y104420D01*
X9053Y103733D01*
Y103022D01*
X9237Y102336D01*
X9593Y101720D01*
X10096Y101217D01*
X10250Y101128D01*
Y100628D01*
X10096Y100538D01*
X9593Y100036D01*
X9237Y99420D01*
X9053Y98733D01*
Y98022D01*
X9237Y97336D01*
X9593Y96720D01*
X10096Y96217D01*
X10711Y95862D01*
X11398Y95678D01*
X12109D01*
X12796Y95862D01*
X13148Y96065D01*
X13652Y95561D01*
X14048Y95296D01*
X14517Y95203D01*
X18731D01*
Y93955D01*
X22493D01*
Y98898D01*
X18731D01*
Y97650D01*
X15023D01*
X14453Y98220D01*
Y98733D01*
X14269Y99420D01*
X13914Y100036D01*
X13411Y100538D01*
X13256Y100628D01*
Y101128D01*
X13411Y101217D01*
X13914Y101720D01*
X14165Y102154D01*
X18731D01*
Y100906D01*
X22493D01*
Y105850D01*
X18731D01*
Y104601D01*
X14382D01*
X14201Y104889D01*
X14449Y105379D01*
X14754D01*
Y107879D01*
D02*
G37*
G36*
X105289Y60649D02*
X103017D01*
Y59542D01*
X102017D01*
Y60649D01*
X99746D01*
Y58968D01*
X100853D01*
Y57968D01*
X99746D01*
Y56287D01*
X102017D01*
Y57395D01*
X103017D01*
Y56287D01*
X105289D01*
Y57968D01*
X104181D01*
Y58968D01*
X105289D01*
Y60649D01*
D02*
G37*
G36*
X98656D02*
X96384D01*
Y59542D01*
X95384D01*
Y60649D01*
X93113D01*
Y58968D01*
X94220D01*
Y57968D01*
X93113D01*
Y56287D01*
X95384D01*
Y57395D01*
X96384D01*
Y56287D01*
X98656D01*
Y57968D01*
X97548D01*
Y58968D01*
X98656D01*
Y60649D01*
D02*
G37*
G36*
X92156D02*
X89884D01*
Y59542D01*
X88884D01*
Y60649D01*
X86613D01*
Y58968D01*
X87720D01*
Y57968D01*
X86613D01*
Y56287D01*
X88884D01*
Y57395D01*
X89884D01*
Y56287D01*
X92156D01*
Y57968D01*
X91048D01*
Y58968D01*
X92156D01*
Y60649D01*
D02*
G37*
G36*
X45339Y59050D02*
X43657D01*
Y57943D01*
X42658D01*
Y59050D01*
X40976D01*
Y56779D01*
X42084D01*
Y55778D01*
X40976D01*
Y53507D01*
X42658D01*
Y54615D01*
X43657D01*
Y53507D01*
X45339D01*
Y55778D01*
X44231D01*
Y56779D01*
X45339D01*
Y59050D01*
D02*
G37*
G36*
X85843Y52778D02*
X83571D01*
Y51670D01*
X82571D01*
Y52778D01*
X80299D01*
Y51097D01*
X81407D01*
Y50097D01*
X80299D01*
Y48415D01*
X82571D01*
Y49523D01*
X83571D01*
Y48415D01*
X85843D01*
Y50097D01*
X84735D01*
Y51097D01*
X85843D01*
Y52778D01*
D02*
G37*
G36*
X79540D02*
X77269D01*
Y51670D01*
X76269D01*
Y52778D01*
X73997D01*
Y51097D01*
X75105D01*
Y50097D01*
X73997D01*
Y48415D01*
X76269D01*
Y49523D01*
X77269D01*
Y48415D01*
X79540D01*
Y50097D01*
X78433D01*
Y51097D01*
X79540D01*
Y52778D01*
D02*
G37*
G36*
X73114Y52659D02*
X69863D01*
Y51552D01*
X68863D01*
Y52659D01*
X65614D01*
Y49909D01*
X66721D01*
Y48909D01*
X65614D01*
Y46159D01*
X68863D01*
Y47267D01*
X69863D01*
Y46159D01*
X73114D01*
Y48909D01*
X72006D01*
Y49909D01*
X73114D01*
Y52659D01*
D02*
G37*
G36*
X45306Y52114D02*
X43625D01*
Y51006D01*
X42625D01*
Y52114D01*
X40944D01*
Y49842D01*
X42052D01*
Y48842D01*
X40944D01*
Y46571D01*
X42625D01*
Y47678D01*
X43625D01*
Y46571D01*
X45306D01*
Y48842D01*
X44199D01*
Y49842D01*
X45306D01*
Y52114D01*
D02*
G37*
G36*
X45339Y44959D02*
X43657D01*
Y43852D01*
X42658D01*
Y44959D01*
X40976D01*
Y42688D01*
X42084D01*
Y41688D01*
X40976D01*
Y39416D01*
X42658D01*
Y40524D01*
X43657D01*
Y39416D01*
X45339D01*
Y41688D01*
X44231D01*
Y42688D01*
X45339D01*
Y44959D01*
D02*
G37*
G36*
X69346Y44890D02*
X67665D01*
Y43782D01*
X66665D01*
Y44890D01*
X64984D01*
Y42618D01*
X66092D01*
Y41618D01*
X64984D01*
Y39347D01*
X66665D01*
Y40454D01*
X67665D01*
Y39347D01*
X69346D01*
Y41618D01*
X68239D01*
Y42618D01*
X69346D01*
Y44890D01*
D02*
G37*
G36*
X57621Y21014D02*
X55350D01*
Y19906D01*
X54350D01*
Y21014D01*
X52078D01*
Y19333D01*
X53186D01*
Y18333D01*
X52078D01*
Y16651D01*
X54350D01*
Y17759D01*
X55350D01*
Y16651D01*
X56099D01*
X56291Y16190D01*
X54870Y14769D01*
X52378D01*
Y14621D01*
X50021D01*
Y14769D01*
X45077D01*
Y11007D01*
X50021D01*
Y11154D01*
X52378D01*
Y11007D01*
X57321D01*
Y12318D01*
X60809Y15805D01*
X61673D01*
X62509Y16151D01*
X63149Y16791D01*
X63495Y17627D01*
Y18532D01*
X63149Y19368D01*
X62509Y20008D01*
X61673Y20354D01*
X60768D01*
X59932Y20008D01*
X59292Y19368D01*
X59134Y18987D01*
X58995Y18894D01*
X58083Y17982D01*
X57621Y18173D01*
Y18333D01*
X56514D01*
Y19333D01*
X57621D01*
Y21014D01*
D02*
G37*
G36*
X50321D02*
X48049D01*
Y19906D01*
X47049D01*
Y21014D01*
X44777D01*
Y19333D01*
X45885D01*
Y18333D01*
X44777D01*
Y16651D01*
X47049D01*
Y17759D01*
X48049D01*
Y16651D01*
X50321D01*
Y18333D01*
X49213D01*
Y19333D01*
X50321D01*
Y21014D01*
D02*
G37*
G36*
X108959Y30867D02*
X81799D01*
X81136Y30735D01*
X80573Y30360D01*
X74843Y24630D01*
X74028Y24292D01*
X73388Y23652D01*
X73042Y22816D01*
Y21911D01*
X73388Y21075D01*
X73735Y20728D01*
X73528Y20228D01*
X72900D01*
Y16465D01*
X77843D01*
Y20228D01*
X77105D01*
X76898Y20728D01*
X77245Y21075D01*
X77592Y21911D01*
Y22475D01*
X82517Y27401D01*
X108241D01*
X111609Y24033D01*
X111457Y23464D01*
Y22502D01*
X111706Y21573D01*
X112186Y20741D01*
X112866Y20060D01*
X113699Y19579D01*
X114628Y19331D01*
X115590D01*
X116519Y19579D01*
X117352Y20060D01*
X118032Y20741D01*
X118513Y21573D01*
X118762Y22502D01*
Y23464D01*
X118513Y24393D01*
X118032Y25226D01*
X117352Y25906D01*
X116519Y26387D01*
X115590Y26636D01*
X114628D01*
X114060Y26484D01*
X110184Y30360D01*
X109622Y30735D01*
X108959Y30867D01*
D02*
G37*
G36*
X12537Y26636D02*
X11575D01*
X10646Y26387D01*
X9813Y25906D01*
X9133Y25226D01*
X8652Y24393D01*
X8403Y23464D01*
Y22502D01*
X8652Y21573D01*
X9133Y20741D01*
X9813Y20060D01*
X10646Y19579D01*
X11575Y19331D01*
X12537D01*
X13466Y19579D01*
X14299Y20060D01*
X14979Y20741D01*
X15460Y21573D01*
X15709Y22502D01*
Y23464D01*
X15460Y24393D01*
X14979Y25226D01*
X14299Y25906D01*
X13466Y26387D01*
X12537Y26636D01*
D02*
G37*
G36*
X110004Y21050D02*
X109042D01*
X108113Y20801D01*
X107280Y20320D01*
X106600Y19640D01*
X106119Y18807D01*
X105870Y17878D01*
Y16916D01*
X106119Y15987D01*
X106600Y15154D01*
X107280Y14474D01*
X108113Y13993D01*
X109042Y13744D01*
X110004D01*
X110933Y13993D01*
X111766Y14474D01*
X112446Y15154D01*
X112927Y15987D01*
X113176Y16916D01*
Y17878D01*
X112927Y18807D01*
X112446Y19640D01*
X111766Y20320D01*
X110933Y20801D01*
X110004Y21050D01*
D02*
G37*
G36*
X18123D02*
X17161D01*
X16232Y20801D01*
X15399Y20320D01*
X14719Y19640D01*
X14238Y18807D01*
X13989Y17878D01*
Y16916D01*
X14238Y15987D01*
X14719Y15154D01*
X15399Y14474D01*
X16232Y13993D01*
X17161Y13744D01*
X18123D01*
X19052Y13993D01*
X19885Y14474D01*
X20565Y15154D01*
X21046Y15987D01*
X21295Y16916D01*
Y17878D01*
X21046Y18807D01*
X20565Y19640D01*
X19885Y20320D01*
X19052Y20801D01*
X18123Y21050D01*
D02*
G37*
G36*
X98090Y25897D02*
X97185D01*
X96349Y25550D01*
X95709Y24911D01*
X95363Y24074D01*
Y23170D01*
X95709Y22333D01*
X96312Y21731D01*
Y18080D01*
X96413Y17572D01*
X96701Y17142D01*
X100566Y13277D01*
X100533Y13221D01*
X100284Y12292D01*
Y11330D01*
X100533Y10401D01*
X101014Y9568D01*
X101694Y8888D01*
X102527Y8407D01*
X103456Y8158D01*
X104418D01*
X105347Y8407D01*
X106180Y8888D01*
X106860Y9568D01*
X107341Y10401D01*
X107590Y11330D01*
Y12292D01*
X107341Y13221D01*
X106860Y14054D01*
X106180Y14734D01*
X105347Y15215D01*
X104418Y15464D01*
X103456D01*
X102527Y15215D01*
X102432Y15160D01*
X98963Y18629D01*
Y21731D01*
X99566Y22333D01*
X99913Y23170D01*
Y24074D01*
X99566Y24911D01*
X98926Y25550D01*
X98090Y25897D01*
D02*
G37*
G36*
X23709Y15464D02*
X22747D01*
X21818Y15215D01*
X20986Y14734D01*
X20305Y14054D01*
X19825Y13221D01*
X19576Y12292D01*
Y11330D01*
X19825Y10401D01*
X20305Y9568D01*
X20986Y8888D01*
X21818Y8407D01*
X22747Y8158D01*
X23709D01*
X24638Y8407D01*
X25471Y8888D01*
X26151Y9568D01*
X26632Y10401D01*
X26881Y11330D01*
Y12292D01*
X26632Y13221D01*
X26151Y14054D01*
X25471Y14734D01*
X24638Y15215D01*
X23709Y15464D01*
D02*
G37*
G36*
X70138Y29440D02*
X69233D01*
X68397Y29094D01*
X67757Y28454D01*
X67410Y27618D01*
Y26713D01*
X67757Y25877D01*
X68360Y25274D01*
Y11255D01*
X67757Y10652D01*
X67410Y9815D01*
Y8911D01*
X67757Y8074D01*
X68397Y7435D01*
X69233Y7088D01*
X70138D01*
X70974Y7435D01*
X71614Y8074D01*
X71960Y8911D01*
Y9815D01*
X71614Y10652D01*
X71011Y11255D01*
Y25274D01*
X71614Y25877D01*
X71960Y26713D01*
Y27618D01*
X71614Y28454D01*
X70974Y29094D01*
X70138Y29440D01*
D02*
G37*
G36*
X77843Y14283D02*
X72900D01*
Y10520D01*
X74148D01*
Y9830D01*
X74083Y9803D01*
X73443Y9163D01*
X73097Y8326D01*
Y7422D01*
X73443Y6585D01*
X74083Y5945D01*
X74919Y5599D01*
X75824D01*
X76660Y5945D01*
X77300Y6585D01*
X77646Y7422D01*
Y8326D01*
X77300Y9163D01*
X76660Y9803D01*
X76595Y9830D01*
Y10520D01*
X77843D01*
Y14283D01*
D02*
G37*
%LPD*%
G36*
X80037Y101132D02*
Y89776D01*
X79177Y88917D01*
X76986D01*
X76877Y88895D01*
X75196D01*
X74722Y89369D01*
Y91051D01*
X74744Y91159D01*
Y105773D01*
X75205Y105964D01*
X80037Y101132D01*
D02*
G37*
D10*
X101470Y65094D02*
Y68966D01*
Y72000D01*
X102151Y64413D02*
X102517D01*
X101470Y65094D02*
X102151Y64413D01*
X71962Y137299D02*
Y137299D01*
Y136924D02*
Y137299D01*
X49102Y42271D02*
X49144Y42229D01*
X49264Y42109D01*
X88307Y122835D02*
X104341D01*
X96099Y107559D02*
X96206Y107451D01*
X65601Y98506D02*
Y101408D01*
X62934Y104075D02*
X65601Y101408D01*
X65591Y98496D02*
X65601Y98506D01*
X71591Y137299D02*
X71962D01*
X72047Y137384D02*
Y137420D01*
X71589Y137878D02*
X72047Y137420D01*
X75371Y18347D02*
Y22706D01*
X60221Y17668D02*
X60809D01*
X61221Y18080D01*
X69685Y9363D02*
X69685Y9363D01*
X75371Y7874D02*
Y12402D01*
X115109Y22983D02*
X115109D01*
X12565Y98378D02*
X14517Y96426D01*
X11753Y98378D02*
X12565D01*
X14517Y96426D02*
X20612D01*
X11753Y103378D02*
X20612D01*
X73722Y63263D02*
X83071D01*
X84221D01*
X49102Y42188D02*
X49144Y42229D01*
X69363Y56510D02*
X69396Y56542D01*
X76769D01*
X68110Y57763D02*
X69363Y56510D01*
X104341Y122835D02*
X108337Y118839D01*
Y118445D02*
Y118839D01*
D13*
X76986Y67323D02*
D03*
Y68898D02*
D03*
Y70473D02*
D03*
Y72047D02*
D03*
Y73622D02*
D03*
Y75197D02*
D03*
Y76772D02*
D03*
Y78347D02*
D03*
Y79921D02*
D03*
Y81496D02*
D03*
Y83071D02*
D03*
Y84646D02*
D03*
Y86221D02*
D03*
Y87795D02*
D03*
X49786D02*
D03*
Y86221D02*
D03*
Y84646D02*
D03*
Y83071D02*
D03*
Y81496D02*
D03*
Y79921D02*
D03*
Y78347D02*
D03*
Y76772D02*
D03*
Y75197D02*
D03*
Y73622D02*
D03*
Y72047D02*
D03*
Y70473D02*
D03*
Y68898D02*
D03*
Y67323D02*
D03*
D14*
X73622Y91159D02*
D03*
X72047D02*
D03*
X70472D02*
D03*
X68898D02*
D03*
X67323D02*
D03*
X65748D02*
D03*
X64173D02*
D03*
X62598D02*
D03*
X61024D02*
D03*
X59449D02*
D03*
X57874D02*
D03*
X56299D02*
D03*
X54724D02*
D03*
X53150D02*
D03*
Y63959D02*
D03*
X54724D02*
D03*
X56299D02*
D03*
X57874D02*
D03*
X59449D02*
D03*
X61024D02*
D03*
X62598D02*
D03*
X64173D02*
D03*
X65748D02*
D03*
X67323D02*
D03*
X68898D02*
D03*
X70472D02*
D03*
X72047D02*
D03*
X73622D02*
D03*
D15*
X63386Y77559D02*
D03*
D23*
X58964Y56609D02*
D03*
X69363Y56510D02*
D03*
Y49409D02*
D03*
X58964D02*
D03*
D24*
X67165Y42118D02*
D03*
X61221D02*
D03*
X49102Y56279D02*
D03*
X43158D02*
D03*
X49070Y49342D02*
D03*
X43125D02*
D03*
X49102Y42188D02*
D03*
X43158D02*
D03*
X20612Y103378D02*
D03*
X26557D02*
D03*
X20612Y96426D02*
D03*
X26557D02*
D03*
X95525Y72000D02*
D03*
X101470D02*
D03*
X95436Y80160D02*
D03*
X101381D02*
D03*
X59646Y98496D02*
D03*
X65591D02*
D03*
X105345Y105886D02*
D03*
X111290D02*
D03*
D25*
X102517Y58468D02*
D03*
Y64413D02*
D03*
X95884Y58468D02*
D03*
Y64413D02*
D03*
X89384Y58468D02*
D03*
Y64413D02*
D03*
X83071Y50597D02*
D03*
Y56542D02*
D03*
X76769D02*
D03*
Y50597D02*
D03*
X75371Y12402D02*
D03*
Y18347D02*
D03*
X54850Y18833D02*
D03*
Y12888D02*
D03*
X47549Y18833D02*
D03*
Y12888D02*
D03*
X96099Y113504D02*
D03*
Y107559D02*
D03*
X88307Y122835D02*
D03*
Y128779D02*
D03*
Y107638D02*
D03*
Y113583D02*
D03*
D26*
X105778Y112146D02*
D03*
X110896D02*
D03*
X108337Y118445D02*
D03*
D27*
X78347Y125197D02*
D03*
X75590D02*
D03*
X72835D02*
D03*
X67323D02*
D03*
X70079D02*
D03*
X59055D02*
D03*
X56299D02*
D03*
X61811D02*
D03*
X64567D02*
D03*
X50787D02*
D03*
X48031D02*
D03*
X53543D02*
D03*
D28*
X58864Y56510D02*
X58964Y56609D01*
X52900Y56510D02*
X58864D01*
X95525Y72591D02*
X96106Y73172D01*
X96697D02*
X100984Y77459D01*
Y79763D01*
X95525Y72000D02*
Y72591D01*
X96106Y73172D02*
X96697D01*
X100984Y79763D02*
X101381Y80160D01*
X81159Y107559D02*
X96099D01*
X72835Y125197D02*
Y136051D01*
Y115883D02*
Y125197D01*
X48031Y113560D02*
Y125197D01*
X47586Y113115D02*
X48031Y113560D01*
Y125585D02*
Y136646D01*
Y125197D02*
Y125585D01*
Y136646D02*
X48309Y136924D01*
X64360Y115643D02*
X64567Y115851D01*
Y125197D01*
X67323Y116197D02*
Y125197D01*
Y116197D02*
X67397Y116123D01*
X48120Y125286D02*
Y132471D01*
X41648Y125250D02*
X42071Y125674D01*
X47943D01*
X53278Y138090D02*
X64567D01*
X47943Y125674D02*
X48031Y125585D01*
Y125197D02*
X48120Y125286D01*
X37196Y125197D02*
X37673Y125674D01*
X40157Y16535D02*
X42455Y18833D01*
X54724D01*
X59065Y99668D02*
X59646Y99086D01*
X44985Y107451D02*
X50100D01*
X59646Y98496D02*
Y99086D01*
X80486Y113504D02*
X96099D01*
X54724Y18833D02*
Y35827D01*
Y18833D02*
X54850D01*
X43158Y42188D02*
Y56279D01*
X91339Y142520D02*
X96999Y136859D01*
X96206Y103957D02*
Y107451D01*
X12056Y108681D02*
Y125197D01*
X69680Y142520D02*
X91339D01*
X67323Y138090D02*
Y140162D01*
X69680Y142520D01*
X67323Y125197D02*
Y138090D01*
X64567D02*
X67323D01*
X64567Y125197D02*
Y138090D01*
X70079Y135786D02*
X71591Y137299D01*
X71962Y136924D02*
X72835Y136051D01*
X70079Y125197D02*
Y135786D01*
X72835Y115883D02*
X81159Y107559D01*
X69685Y9363D02*
Y27165D01*
X40157Y8577D02*
Y16535D01*
Y8577D02*
X40860Y7874D01*
X46844D01*
X97638Y18080D02*
X103922Y11796D01*
X97638Y18080D02*
Y23622D01*
X38189Y49342D02*
X43125D01*
X11754Y108379D02*
X12056Y108681D01*
X43158Y38458D02*
Y42188D01*
X67165Y42118D02*
Y42598D01*
Y36630D02*
Y42118D01*
X67086Y42677D02*
X67165Y42598D01*
X66362Y35827D02*
X67165Y36630D01*
X67086Y47759D02*
X68736Y49409D01*
X67086Y42677D02*
Y47759D01*
X68736Y49409D02*
X69363D01*
X89384Y52362D02*
Y58468D01*
X87619Y50597D02*
X89384Y52362D01*
X83071Y50597D02*
X87619D01*
X95884Y58468D02*
X102517D01*
X89384D02*
X95884D01*
X76769Y50597D02*
X83071D01*
X69363Y49409D02*
X70551Y50597D01*
X96099Y113504D02*
Y118445D01*
X110896Y112146D02*
Y112539D01*
X88307Y128779D02*
Y135827D01*
X77686Y138090D02*
X86044D01*
X88307Y135827D01*
X75590Y135994D02*
X77686Y138090D01*
X75590Y125197D02*
Y135994D01*
X78347Y115643D02*
X80486Y113504D01*
X78347Y115643D02*
Y125197D01*
X111093Y106083D02*
Y111949D01*
Y106083D02*
X111290Y105886D01*
X110896Y112146D02*
X111093Y111949D01*
D29*
X80745Y68966D02*
X101470D01*
X26557Y103378D02*
X31243Y98691D01*
X53277D02*
X57874Y94095D01*
X31243Y98691D02*
X53277D01*
X101381Y96426D02*
Y98239D01*
X91175Y86221D02*
X101381Y96426D01*
X76986Y86221D02*
X91175D01*
X76986Y87795D02*
X79642D01*
X81159Y89312D01*
X69047Y113708D02*
X81159Y101597D01*
Y89312D02*
Y101597D01*
X62934Y113708D02*
X69047D01*
X73622Y91159D02*
Y106648D01*
X59961Y112208D02*
X68062D01*
X73622Y106648D01*
X58130Y110708D02*
X67161D01*
X72047Y105822D01*
X61811Y114831D02*
Y125197D01*
Y114831D02*
X62934Y113708D01*
X50787Y113504D02*
X56744Y107547D01*
X65307D02*
X68898Y103957D01*
X56744Y107547D02*
X65307D01*
X57347Y109066D02*
X66682D01*
X53543Y112869D02*
X57347Y109066D01*
X66682D02*
X70472Y105276D01*
X59055Y113115D02*
X59961Y112208D01*
X56299Y112539D02*
X58130Y110708D01*
X59055Y113115D02*
Y125197D01*
X56299Y112539D02*
Y125197D01*
X53543Y112869D02*
Y125197D01*
X50787Y113504D02*
Y125197D01*
X68898Y91159D02*
Y103957D01*
X70472Y91159D02*
Y105276D01*
X72047Y91159D02*
Y105822D01*
X65748Y91159D02*
Y98239D01*
X57874Y91159D02*
Y94095D01*
X52900Y96426D02*
X55567Y93759D01*
X55580D02*
X56299Y93040D01*
X26557Y96426D02*
X52900D01*
X55567Y93759D02*
X55580D01*
X56299Y91859D02*
Y93040D01*
X37681Y76772D02*
X49786D01*
X42765Y75197D02*
X49786D01*
X37681Y70113D02*
X42765Y75197D01*
X76986Y84646D02*
X94112D01*
X105778Y96311D01*
X76986Y72072D02*
X85777D01*
X76986Y68898D02*
X80745D01*
X85777Y72072D02*
X93524Y79820D01*
X95096D01*
X95436Y80160D01*
X73622Y61477D02*
Y63959D01*
X73179Y61034D02*
X73622Y61477D01*
X72516Y61034D02*
X73179D01*
X72047Y61502D02*
Y63959D01*
Y61502D02*
X72516Y61034D01*
X49102Y59943D02*
X49827Y60668D01*
X56508D02*
X57874Y62034D01*
X49827Y60668D02*
X56508D01*
X49102Y56279D02*
Y59943D01*
X64340Y59646D02*
X65153Y60459D01*
X59714Y49409D02*
X64340Y54036D01*
Y59646D01*
X59502Y49198D02*
X61141Y47559D01*
X59291Y49409D02*
X59714D01*
X58964D02*
X59291D01*
X65153Y60459D02*
X68110D01*
X68898Y61247D02*
Y63959D01*
X68110Y60459D02*
X68898Y61247D01*
X105778Y96311D02*
Y112146D01*
X57874Y62034D02*
Y63959D01*
X61141Y42677D02*
Y47559D01*
X70472Y57763D02*
Y63959D01*
X76986Y70473D02*
X80745D01*
Y68966D02*
Y70473D01*
D30*
X89384Y64413D02*
X95884D01*
X88794D02*
X89384D01*
X49102Y42271D02*
Y56279D01*
X84221Y63263D02*
X87644D01*
X88794Y64413D01*
X47549Y12888D02*
X55440D01*
X60221Y17668D01*
X81799Y29134D02*
X108959D01*
X115109Y22983D01*
X75371Y22706D02*
X81799Y29134D01*
X101381Y80160D02*
Y84646D01*
X83071Y56542D02*
Y63263D01*
X49264Y42109D02*
X53270D01*
D31*
X115109Y22983D02*
D03*
X109523Y17397D02*
D03*
X103937Y11811D02*
D03*
X12056Y136859D02*
D03*
X17642Y142445D02*
D03*
X23228Y148031D02*
D03*
X115109Y136859D02*
D03*
X109523Y142445D02*
D03*
X103937Y148031D02*
D03*
X23228Y11811D02*
D03*
X17642Y17397D02*
D03*
X12056Y22983D02*
D03*
D32*
X11753Y98378D02*
D03*
Y103378D02*
D03*
D33*
X11754Y108379D02*
D03*
D34*
X52900Y56510D02*
D03*
X58000Y35000D02*
D03*
X84970Y24129D02*
D03*
X91656Y42000D02*
D03*
X103536D02*
D03*
X115000D02*
D03*
Y62000D02*
D03*
Y82000D02*
D03*
Y100000D02*
D03*
X89172Y8577D02*
D03*
X36129Y19017D02*
D03*
X43000Y35000D02*
D03*
X27000D02*
D03*
Y52000D02*
D03*
Y84000D02*
D03*
X12000Y35000D02*
D03*
Y52000D02*
D03*
Y68000D02*
D03*
Y84000D02*
D03*
X27000Y119000D02*
D03*
Y126000D02*
D03*
Y133000D02*
D03*
X96584Y132017D02*
D03*
X63500Y72500D02*
D03*
Y82500D02*
D03*
X58000Y77500D02*
D03*
X89000Y148000D02*
D03*
X65000D02*
D03*
X41000D02*
D03*
X115000Y118368D02*
D03*
X115109Y126000D02*
D03*
X83114Y78347D02*
D03*
X87807Y91925D02*
D03*
Y99086D02*
D03*
X77245Y97548D02*
D03*
X83071Y118869D02*
D03*
X83083Y132441D02*
D03*
X83071Y126000D02*
D03*
X41000Y119000D02*
D03*
Y133000D02*
D03*
Y126000D02*
D03*
X101381Y98239D02*
D03*
X44985Y107451D02*
D03*
X96206Y103957D02*
D03*
X62934Y104075D02*
D03*
X71589Y137878D02*
D03*
X69000Y77500D02*
D03*
X75317Y22363D02*
D03*
X61221Y18080D02*
D03*
X69685Y27165D02*
D03*
X69685Y9363D02*
D03*
X75371Y7874D02*
D03*
X37681Y76772D02*
D03*
Y70113D02*
D03*
X51968Y2750D02*
D03*
X97638Y23622D02*
D03*
X101381Y85924D02*
D03*
X83071Y63263D02*
D03*
X53270Y42109D02*
D03*
X96099Y118445D02*
D03*
M02*
