G04*
G04 #@! TF.GenerationSoftware,Altium Limited,Altium Designer,24.1.2 (44)*
G04*
G04 Layer_Physical_Order=2*
G04 Layer_Color=16711680*
%FSLAX25Y25*%
%MOIN*%
G70*
G04*
G04 #@! TF.SameCoordinates,1F2B22B6-C7F4-4D77-9554-8AD25EDC8032*
G04*
G04*
G04 #@! TF.FilePolarity,Positive*
G04*
G01*
G75*
%ADD10C,0.01000*%
%ADD28C,0.01200*%
%ADD30C,0.02000*%
%ADD31C,0.05906*%
%ADD32C,0.04000*%
%ADD33R,0.04000X0.04000*%
%ADD34C,0.03150*%
%ADD35R,0.01968X0.01968*%
%ADD36C,0.01600*%
G36*
X121326Y137627D02*
Y22016D01*
X103574Y4265D01*
X83071D01*
X82644Y4180D01*
X82282Y3938D01*
X82041Y3576D01*
X81956Y3150D01*
X81964Y3106D01*
X81956Y3062D01*
Y-4397D01*
X69017D01*
X68729Y-3897D01*
X68834Y-3716D01*
X68919Y-3653D01*
X71369D01*
Y-3192D01*
X73403D01*
X73871Y-3099D01*
X74268Y-2834D01*
X76237Y-865D01*
X76502Y-468D01*
X76595Y0D01*
Y5919D01*
X76660Y5945D01*
X77300Y6585D01*
X77646Y7422D01*
Y8326D01*
X77300Y9163D01*
X76660Y9803D01*
X75824Y10149D01*
X74919D01*
X74083Y9803D01*
X73443Y9163D01*
X73097Y8326D01*
Y7422D01*
X73443Y6585D01*
X74083Y5945D01*
X74148Y5919D01*
Y507D01*
X72896Y-745D01*
X71669D01*
Y681D01*
X70562D01*
Y1681D01*
X71669D01*
Y3165D01*
X71369D01*
Y5515D01*
X71369Y6015D01*
X70909Y6110D01*
Y7408D01*
X70974Y7435D01*
X71614Y8074D01*
X71960Y8911D01*
Y9815D01*
X71614Y10652D01*
X70974Y11292D01*
X70138Y11638D01*
X69233D01*
X68397Y11292D01*
X67757Y10652D01*
X67410Y9815D01*
Y8911D01*
X67757Y8074D01*
X68397Y7435D01*
X68462Y7408D01*
Y6015D01*
X64711D01*
Y8905D01*
X68261Y12454D01*
X95984D01*
X96491Y12555D01*
X96921Y12842D01*
X100833Y16754D01*
X105914D01*
X106119Y15987D01*
X106600Y15154D01*
X107280Y14474D01*
X108113Y13993D01*
X109042Y13744D01*
X110004D01*
X110933Y13993D01*
X111766Y14474D01*
X112446Y15154D01*
X112927Y15987D01*
X113176Y16916D01*
Y17878D01*
X112927Y18807D01*
X112446Y19640D01*
X111766Y20320D01*
X110933Y20801D01*
X110004Y21050D01*
X109042D01*
X108113Y20801D01*
X107280Y20320D01*
X106600Y19640D01*
X106465Y19405D01*
X100284D01*
X99777Y19304D01*
X99347Y19017D01*
X95435Y15105D01*
X91650D01*
X91496Y15576D01*
X91495Y15605D01*
X97237Y21347D01*
X98090D01*
X98926Y21694D01*
X99566Y22333D01*
X99913Y23170D01*
Y24074D01*
X99566Y24911D01*
X98926Y25550D01*
X98090Y25897D01*
X97185D01*
X96349Y25550D01*
X95709Y24911D01*
X95363Y24074D01*
Y23222D01*
X90002Y17861D01*
X66334D01*
X65827Y17760D01*
X65397Y17473D01*
X59299Y11375D01*
X59116Y11101D01*
X58616Y11253D01*
Y13312D01*
X61109Y15805D01*
X61673D01*
X62509Y16151D01*
X63149Y16791D01*
X63495Y17627D01*
Y18192D01*
X66138Y20834D01*
X73629D01*
X74028Y20435D01*
X74864Y20089D01*
X75769D01*
X76605Y20435D01*
X77245Y21075D01*
X77592Y21911D01*
Y22816D01*
X77245Y23652D01*
X76605Y24292D01*
X75769Y24638D01*
X74864D01*
X74028Y24292D01*
X73629Y23893D01*
X65504D01*
X64919Y23776D01*
X64423Y23445D01*
X61332Y20354D01*
X60768D01*
X59932Y20008D01*
X59292Y19368D01*
X58946Y18532D01*
Y17968D01*
X56005Y15027D01*
X55674Y14531D01*
X55557Y13946D01*
Y8215D01*
X50479D01*
X49893Y8099D01*
X49397Y7767D01*
X46950Y5320D01*
X46619Y4824D01*
X46502Y4239D01*
Y367D01*
X46619Y-218D01*
X46950Y-714D01*
X49286Y-3050D01*
X49782Y-3382D01*
X50367Y-3498D01*
X55402D01*
Y-3653D01*
X57853D01*
X57938Y-3716D01*
X58042Y-3897D01*
X57754Y-4397D01*
X44816D01*
Y3150D01*
X44731Y3576D01*
X44489Y3938D01*
X44128Y4180D01*
X43701Y4265D01*
X23752D01*
X5446Y22570D01*
Y137333D01*
X23690Y155578D01*
X103376D01*
X121326Y137627D01*
D02*
G37*
G36*
X55402Y3165D02*
X55102D01*
Y1681D01*
X56210D01*
Y681D01*
X55102D01*
Y-439D01*
X51001D01*
X49561Y1001D01*
Y3605D01*
X51112Y5156D01*
X55402D01*
Y3165D01*
D02*
G37*
%LPC*%
G36*
X23709Y151684D02*
X22748D01*
X21818Y151435D01*
X20986Y150954D01*
X20305Y150274D01*
X19825Y149441D01*
X19576Y148512D01*
Y147551D01*
X19825Y146622D01*
X20305Y145789D01*
X20986Y145109D01*
X21730Y144679D01*
X21702Y144326D01*
X21645Y144179D01*
X20859D01*
X20565Y144688D01*
X19885Y145368D01*
X19052Y145849D01*
X18123Y146098D01*
X17161D01*
X16232Y145849D01*
X15399Y145368D01*
X14719Y144688D01*
X14238Y143855D01*
X13989Y142926D01*
Y141964D01*
X14238Y141035D01*
X14493Y140594D01*
X14128Y140227D01*
X13582Y140543D01*
X12576Y140812D01*
X11536D01*
X10530Y140543D01*
X9629Y140022D01*
X9615Y140008D01*
X12410Y137213D01*
X15205Y134418D01*
X15219Y134432D01*
X15739Y135334D01*
X16009Y136339D01*
Y137380D01*
X15739Y138385D01*
X15424Y138931D01*
X15790Y139297D01*
X16232Y139041D01*
X17161Y138793D01*
X18123D01*
X19052Y139041D01*
X19885Y139522D01*
X20565Y140202D01*
X20859Y140712D01*
X66679D01*
X69314Y138077D01*
Y137426D01*
X69661Y136590D01*
X70301Y135950D01*
X71137Y135604D01*
X72042D01*
X72878Y135950D01*
X73518Y136590D01*
X73864Y137426D01*
Y138331D01*
X73518Y139167D01*
X72878Y139807D01*
X72211Y140083D01*
X68623Y143671D01*
X68060Y144047D01*
X67397Y144179D01*
X24812D01*
X24755Y144326D01*
X24727Y144679D01*
X25471Y145109D01*
X26151Y145789D01*
X26632Y146622D01*
X26881Y147551D01*
Y148512D01*
X26632Y149441D01*
X26151Y150274D01*
X25471Y150954D01*
X24638Y151435D01*
X23709Y151684D01*
D02*
G37*
G36*
X110004Y146098D02*
X109042D01*
X108113Y145849D01*
X107280Y145368D01*
X106600Y144688D01*
X106119Y143855D01*
X105870Y142926D01*
Y141964D01*
X106119Y141035D01*
X106600Y140202D01*
X107280Y139522D01*
X108113Y139041D01*
X108198Y139019D01*
Y67553D01*
X70085Y29440D01*
X69233D01*
X68397Y29094D01*
X67757Y28454D01*
X67410Y27618D01*
Y26713D01*
X67757Y25877D01*
X68397Y25237D01*
X69233Y24891D01*
X70138D01*
X70974Y25237D01*
X71614Y25877D01*
X71960Y26713D01*
Y27566D01*
X110460Y66066D01*
X110748Y66496D01*
X110849Y67004D01*
Y135556D01*
X111349Y135622D01*
X111426Y135334D01*
X111946Y134432D01*
X111961Y134418D01*
X114756Y137213D01*
X117551Y140008D01*
X117536Y140022D01*
X116635Y140543D01*
X115630Y140812D01*
X114589D01*
X113584Y140543D01*
X113038Y140227D01*
X112672Y140594D01*
X112927Y141035D01*
X113176Y141964D01*
Y142926D01*
X112927Y143855D01*
X112446Y144688D01*
X111766Y145368D01*
X110933Y145849D01*
X110004Y146098D01*
D02*
G37*
G36*
X118258Y139301D02*
X115816Y136859D01*
X118258Y134418D01*
X118272Y134432D01*
X118793Y135334D01*
X119062Y136339D01*
Y137380D01*
X118793Y138385D01*
X118272Y139286D01*
X118258Y139301D01*
D02*
G37*
G36*
X8907Y139301D02*
X8893Y139286D01*
X8373Y138385D01*
X8103Y137380D01*
Y136339D01*
X8373Y135334D01*
X8893Y134432D01*
X8907Y134418D01*
X11349Y136859D01*
X8907Y139301D01*
D02*
G37*
G36*
X115109Y136152D02*
X112668Y133711D01*
X112682Y133696D01*
X113584Y133176D01*
X114589Y132906D01*
X115630D01*
X116635Y133176D01*
X117536Y133696D01*
X117551Y133711D01*
X115109Y136152D01*
D02*
G37*
G36*
X12056Y136152D02*
X9615Y133711D01*
X9629Y133696D01*
X10530Y133176D01*
X11536Y132906D01*
X12576D01*
X13582Y133176D01*
X14483Y133696D01*
X14498Y133711D01*
X12056Y136152D01*
D02*
G37*
G36*
X14754Y111379D02*
X12254D01*
Y108879D01*
X14754D01*
Y111379D01*
D02*
G37*
G36*
X11254D02*
X8754D01*
Y108879D01*
X11254D01*
Y111379D01*
D02*
G37*
G36*
X104418Y151684D02*
X103456D01*
X102527Y151435D01*
X101694Y150954D01*
X101014Y150274D01*
X100533Y149441D01*
X100284Y148512D01*
Y147551D01*
X100533Y146622D01*
X101014Y145789D01*
X101694Y145109D01*
X102527Y144628D01*
X102611Y144605D01*
Y132566D01*
X100444Y130399D01*
X100157Y129969D01*
X100056Y129462D01*
Y100130D01*
X99453Y99527D01*
X99107Y98691D01*
Y97786D01*
X99453Y96950D01*
X100093Y96310D01*
X100929Y95964D01*
X101834D01*
X102670Y96310D01*
X103310Y96950D01*
X103656Y97786D01*
Y98691D01*
X103310Y99527D01*
X102707Y100130D01*
Y128913D01*
X104874Y131080D01*
X105162Y131510D01*
X105262Y132017D01*
Y144605D01*
X105347Y144628D01*
X106180Y145109D01*
X106860Y145789D01*
X107341Y146622D01*
X107590Y147551D01*
Y148512D01*
X107341Y149441D01*
X106860Y150274D01*
X106180Y150954D01*
X105347Y151435D01*
X104418Y151684D01*
D02*
G37*
G36*
X14754Y107879D02*
X11754D01*
X8754D01*
Y105379D01*
X9282D01*
X9503Y104879D01*
X9237Y104420D01*
X9053Y103733D01*
Y103022D01*
X9237Y102336D01*
X9593Y101720D01*
X10096Y101217D01*
X10250Y101128D01*
Y100628D01*
X10096Y100538D01*
X9593Y100036D01*
X9237Y99420D01*
X9053Y98733D01*
Y98022D01*
X9237Y97336D01*
X9593Y96720D01*
X10096Y96217D01*
X10711Y95862D01*
X11398Y95678D01*
X12109D01*
X12796Y95862D01*
X13411Y96217D01*
X13914Y96720D01*
X14269Y97336D01*
X14453Y98022D01*
Y98733D01*
X14269Y99420D01*
X13914Y100036D01*
X13411Y100538D01*
X13256Y100628D01*
Y101128D01*
X13411Y101217D01*
X13914Y101720D01*
X14269Y102336D01*
X14453Y103022D01*
Y103733D01*
X14269Y104420D01*
X14004Y104879D01*
X14225Y105379D01*
X14754D01*
Y107879D01*
D02*
G37*
G36*
X63386Y106350D02*
X62481D01*
X61645Y106004D01*
X61005Y105364D01*
X60659Y104528D01*
Y103623D01*
X61005Y102787D01*
X61645Y102147D01*
X62481Y101800D01*
X63386D01*
X64222Y102147D01*
X64358Y102283D01*
X94365D01*
Y91207D01*
X94497Y90543D01*
X94873Y89981D01*
X98053Y86800D01*
X81845Y70592D01*
X81470Y70030D01*
X81338Y69367D01*
Y64747D01*
X81142Y64552D01*
X80796Y63715D01*
Y62810D01*
X81142Y61974D01*
X81350Y61767D01*
Y48424D01*
X76769Y43842D01*
X54754D01*
X54558Y44038D01*
X53722Y44384D01*
X52817D01*
X51981Y44038D01*
X51341Y43398D01*
X50995Y42562D01*
Y41657D01*
X51341Y40821D01*
X51981Y40181D01*
X52817Y39834D01*
X53722D01*
X54558Y40181D01*
X54754Y40376D01*
X77487D01*
X78150Y40508D01*
X78712Y40883D01*
X84309Y46480D01*
X84685Y47042D01*
X84817Y47706D01*
Y61792D01*
X84999Y61974D01*
X85346Y62810D01*
Y63715D01*
X84999Y64552D01*
X84804Y64747D01*
Y68649D01*
X100126Y83970D01*
X100153D01*
X100929Y83649D01*
X101834D01*
X102670Y83995D01*
X103310Y84635D01*
X103656Y85471D01*
Y86376D01*
X103310Y87212D01*
X102670Y87852D01*
X101834Y88199D01*
X101558D01*
X97832Y91925D01*
Y102365D01*
X98135Y102668D01*
X98481Y103504D01*
Y104409D01*
X98135Y105245D01*
X97495Y105885D01*
X96659Y106232D01*
X95754D01*
X94918Y105885D01*
X94782Y105749D01*
X64477D01*
X64222Y106004D01*
X63386Y106350D01*
D02*
G37*
G36*
X38134Y79046D02*
X37229D01*
X36393Y78700D01*
X35753Y78060D01*
X35407Y77224D01*
Y76651D01*
X16705Y57950D01*
X16418Y57520D01*
X16317Y57012D01*
Y20824D01*
X16232Y20801D01*
X15399Y20320D01*
X14719Y19640D01*
X14238Y18807D01*
X13989Y17878D01*
Y16916D01*
X14238Y15987D01*
X14719Y15154D01*
X15399Y14474D01*
X16232Y13993D01*
X17161Y13744D01*
X18123D01*
X19052Y13993D01*
X19885Y14474D01*
X20565Y15154D01*
X21046Y15987D01*
X21295Y16916D01*
Y17878D01*
X21046Y18807D01*
X20565Y19640D01*
X19885Y20320D01*
X19052Y20801D01*
X18968Y20824D01*
Y56463D01*
X37068Y74563D01*
X37229Y74497D01*
X38134D01*
X38970Y74843D01*
X39610Y75483D01*
X39956Y76319D01*
Y77224D01*
X39610Y78060D01*
X38970Y78700D01*
X38134Y79046D01*
D02*
G37*
G36*
X115590Y26636D02*
X114628D01*
X113699Y26387D01*
X112866Y25906D01*
X112186Y25226D01*
X111706Y24393D01*
X111457Y23464D01*
Y22502D01*
X111706Y21573D01*
X112186Y20741D01*
X112866Y20060D01*
X113699Y19579D01*
X114628Y19331D01*
X115590D01*
X116519Y19579D01*
X117352Y20060D01*
X118032Y20741D01*
X118513Y21573D01*
X118762Y22502D01*
Y23464D01*
X118513Y24393D01*
X118032Y25226D01*
X117352Y25906D01*
X116519Y26387D01*
X115590Y26636D01*
D02*
G37*
G36*
X12537D02*
X11575D01*
X10646Y26387D01*
X9813Y25906D01*
X9133Y25226D01*
X8652Y24393D01*
X8403Y23464D01*
Y22502D01*
X8652Y21573D01*
X9133Y20741D01*
X9813Y20060D01*
X10646Y19579D01*
X11575Y19331D01*
X12537D01*
X13466Y19579D01*
X14299Y20060D01*
X14979Y20741D01*
X15460Y21573D01*
X15709Y22502D01*
Y23464D01*
X15460Y24393D01*
X14979Y25226D01*
X14299Y25906D01*
X13466Y26387D01*
X12537Y26636D01*
D02*
G37*
G36*
X104418Y15464D02*
X103456D01*
X102527Y15215D01*
X101694Y14734D01*
X101014Y14054D01*
X100533Y13221D01*
X100284Y12292D01*
Y11330D01*
X100533Y10401D01*
X101014Y9568D01*
X101694Y8888D01*
X102527Y8407D01*
X103456Y8158D01*
X104418D01*
X105347Y8407D01*
X106180Y8888D01*
X106860Y9568D01*
X107341Y10401D01*
X107590Y11330D01*
Y12292D01*
X107341Y13221D01*
X106860Y14054D01*
X106180Y14734D01*
X105347Y15215D01*
X104418Y15464D01*
D02*
G37*
G36*
X38134Y72388D02*
X37229D01*
X36393Y72041D01*
X35753Y71401D01*
X35407Y70565D01*
Y69713D01*
X22291Y56597D01*
X22004Y56167D01*
X21903Y55660D01*
Y15237D01*
X21818Y15215D01*
X20986Y14734D01*
X20305Y14054D01*
X19825Y13221D01*
X19576Y12292D01*
Y11330D01*
X19825Y10401D01*
X20305Y9568D01*
X20986Y8888D01*
X21818Y8407D01*
X22747Y8158D01*
X23709D01*
X24638Y8407D01*
X25471Y8888D01*
X26151Y9568D01*
X26632Y10401D01*
X26881Y11330D01*
Y12292D01*
X26632Y13221D01*
X26151Y14054D01*
X25471Y14734D01*
X24638Y15215D01*
X24554Y15237D01*
Y55111D01*
X37281Y67838D01*
X38134D01*
X38970Y68184D01*
X39610Y68824D01*
X39956Y69660D01*
Y70565D01*
X39610Y71401D01*
X38970Y72041D01*
X38134Y72388D01*
D02*
G37*
%LPD*%
D10*
X62934Y104075D02*
X62993Y104016D01*
X96147D02*
X96206Y103957D01*
X96099Y103849D02*
X96206Y103957D01*
X71589Y137878D02*
Y138253D01*
X69685Y4331D02*
Y9363D01*
Y-1969D02*
X73403D01*
X75371Y0D01*
Y7874D01*
X83071Y63263D02*
X83083Y63250D01*
D28*
X44985Y56403D02*
X52793D01*
X52900Y56510D02*
Y61232D01*
X52793Y56403D02*
X52900Y56510D01*
X44985Y107451D02*
Y121859D01*
X52900Y61232D02*
X63709Y72041D01*
X44985Y56403D02*
Y107451D01*
X63709Y72206D02*
X68898Y77394D01*
Y77559D01*
X63709Y72041D02*
Y72206D01*
X41171Y125674D02*
X44985Y121859D01*
X66535Y1181D02*
X69685D01*
X100284Y18080D02*
X108841D01*
X109523Y17397D01*
X67712Y13780D02*
X95984D01*
X100284Y18080D01*
X101381Y129462D02*
X103937Y132017D01*
Y148031D01*
X101381Y98239D02*
Y129462D01*
X109523Y67004D02*
Y142445D01*
X96099Y131532D02*
X100000Y135433D01*
X17642Y57012D02*
X37541Y76912D01*
X69685Y27165D02*
X109523Y67004D01*
X60236Y4331D02*
Y10438D01*
X66334Y16535D01*
X90551D01*
X63386Y9454D02*
X67712Y13780D01*
X63386Y4331D02*
Y9454D01*
X90551Y16535D02*
X97638Y23622D01*
X57087Y1181D02*
X60236D01*
X54065D02*
X57087D01*
X17642Y17397D02*
Y57012D01*
X23228Y11811D02*
Y55660D01*
X37681Y70113D01*
X96099Y118445D02*
Y131532D01*
X52496Y2750D02*
X54065Y1181D01*
X51968Y2750D02*
X52496D01*
X37681Y49099D02*
X44985Y56403D01*
X114513Y136859D02*
X115109D01*
X63386Y1181D02*
X66535D01*
X66536Y1181D01*
Y-1969D02*
Y1181D01*
X60236Y1181D02*
X63386D01*
X63386Y1181D01*
Y-1969D02*
Y1181D01*
X60236Y-1969D02*
Y1181D01*
D30*
X99408Y85704D02*
X101161D01*
X83071Y63263D02*
Y69367D01*
X101161Y85704D02*
X101381Y85924D01*
X83071Y69367D02*
X99408Y85704D01*
X96099Y91207D02*
Y103849D01*
Y91207D02*
X101381Y85924D01*
X62993Y104016D02*
X96147D01*
X67397Y142445D02*
X71589Y138253D01*
X17642Y142445D02*
X67397D01*
X83083Y47706D02*
Y63250D01*
X77487Y42109D02*
X83083Y47706D01*
X53270Y42109D02*
X77487D01*
D31*
X115109Y22983D02*
D03*
X109523Y17397D02*
D03*
X103937Y11811D02*
D03*
X12056Y136859D02*
D03*
X17642Y142445D02*
D03*
X23228Y148031D02*
D03*
X115109Y136859D02*
D03*
X109523Y142445D02*
D03*
X103937Y148031D02*
D03*
X23228Y11811D02*
D03*
X17642Y17397D02*
D03*
X12056Y22983D02*
D03*
D32*
X11753Y98378D02*
D03*
Y103378D02*
D03*
D33*
X11754Y108379D02*
D03*
D34*
X52900Y56510D02*
D03*
X58000Y35000D02*
D03*
X84970Y24129D02*
D03*
X91656Y42000D02*
D03*
X103536D02*
D03*
X115000D02*
D03*
Y62000D02*
D03*
Y82000D02*
D03*
Y100000D02*
D03*
X89172Y8577D02*
D03*
X36129Y19017D02*
D03*
X43000Y35000D02*
D03*
X27000D02*
D03*
Y52000D02*
D03*
Y84000D02*
D03*
X12000Y35000D02*
D03*
Y52000D02*
D03*
Y68000D02*
D03*
Y84000D02*
D03*
X27000Y119000D02*
D03*
Y126000D02*
D03*
Y133000D02*
D03*
X96584Y132017D02*
D03*
X63500Y72500D02*
D03*
Y82500D02*
D03*
X58000Y77500D02*
D03*
X89000Y148000D02*
D03*
X65000D02*
D03*
X41000D02*
D03*
X115000Y118368D02*
D03*
X115109Y126000D02*
D03*
X83114Y78347D02*
D03*
X87807Y91925D02*
D03*
Y99086D02*
D03*
X77245Y97548D02*
D03*
X83071Y118869D02*
D03*
X83083Y132441D02*
D03*
X83071Y126000D02*
D03*
X41000Y119000D02*
D03*
Y133000D02*
D03*
Y126000D02*
D03*
X101381Y98239D02*
D03*
X44985Y107451D02*
D03*
X96206Y103957D02*
D03*
X62934Y104075D02*
D03*
X71589Y137878D02*
D03*
X69000Y77500D02*
D03*
X75317Y22363D02*
D03*
X61221Y18080D02*
D03*
X69685Y27165D02*
D03*
X69685Y9363D02*
D03*
X75371Y7874D02*
D03*
X37681Y76772D02*
D03*
Y70113D02*
D03*
X51968Y2750D02*
D03*
X97638Y23622D02*
D03*
X101381Y85924D02*
D03*
X83071Y63263D02*
D03*
X53270Y42109D02*
D03*
X96099Y118445D02*
D03*
D35*
X57087Y1181D02*
D03*
Y4331D02*
D03*
X60236D02*
D03*
X63386D02*
D03*
X66536D02*
D03*
X69685D02*
D03*
Y1181D02*
D03*
Y-1969D02*
D03*
X66536D02*
D03*
X63386D02*
D03*
X60236D02*
D03*
X57087D02*
D03*
D36*
X50367Y-1969D02*
X57087D01*
X48031Y367D02*
Y4239D01*
Y367D02*
X50367Y-1969D01*
X50479Y6686D02*
X57087D01*
X48031Y4239D02*
X50479Y6686D01*
X57087D02*
Y13946D01*
Y4331D02*
Y6686D01*
X61221Y18080D02*
X65504Y22363D01*
X75317D01*
X57087Y13946D02*
X61221Y18080D01*
M02*
