M48
;Layer_Color=9474304
;FILE_FORMAT=2:4
INCH,TZ
;TYPE=PLATED
T01F00S00C0.0197
T02F00S00C0.0250
T03F00S00C0.0354
%
T01
X8917Y858
X9764Y2362
X10354Y4200
X11500
Y6200
Y8200
X10138Y8592
Y9824
X9621Y10396
X9610Y11844
X9658Y13202
X11511Y12600
X11500Y11837
Y10000
X9166Y4200
X8497Y2413
X7532Y2236
X6969Y2717
X6122Y1808
X6969Y936
X7537Y787
X5197Y275
X3613Y1902
X4300Y3500
X5800
X5327Y4211
X5290Y5651
X5800Y7750
X6350Y7250
Y8250
X6900Y7750
X8311Y7835
X8307Y6326
X8781Y9192
Y9909
X7725Y9755
X6293Y10408
X4499Y10745
X4100Y11900
Y12600
Y13300
X2700
Y12600
Y11900
Y8400
X1200
Y6800
Y5200
X2700
Y3500
X1200
X3768Y7011
Y7677
X8307Y11887
Y12600
X8308Y13244
X7159Y13788
X6500Y14800
X4100
X8900
T02
X1175Y9838
Y10338
X1175Y10838
T03
X10394Y1181
X10952Y1740
X11511Y2298
Y13686
X10952Y14245
X1764
X1206Y13686
X1206Y2298
X1764Y1740
X2323Y1181
X2323Y14803
X10394
M30
