G04*
G04 #@! TF.GenerationSoftware,Altium Limited,Altium Designer,24.1.2 (44)*
G04*
G04 Layer_Color=8388736*
%FSLAX25Y25*%
%MOIN*%
G70*
G04*
G04 #@! TF.SameCoordinates,1F2B22B6-C7F4-4D77-9554-8AD25EDC8032*
G04*
G04*
G04 #@! TF.FilePolarity,Negative*
G04*
G01*
G75*
%ADD10C,0.01000*%
%ADD11C,0.00394*%
%ADD12R,0.06300X0.05300*%
%ADD13R,0.03000X0.00800*%
%ADD14R,0.00800X0.03000*%
%ADD15R,0.15800X0.15800*%
%ADD16R,0.03162X0.04343*%
%ADD17R,0.04343X0.03162*%
%ADD18R,0.03162X0.03950*%
%ADD19R,0.02178X0.16548*%
%ADD20C,0.06706*%
%ADD21C,0.04800*%
%ADD22R,0.04800X0.04800*%
D10*
X22284Y75224D02*
X25295D01*
X19795D02*
X22284D01*
X16795Y77724D02*
X19295Y75224D01*
X16795Y74724D02*
Y77724D01*
Y74724D02*
X20295Y69224D01*
X15795Y66724D02*
Y70724D01*
Y66724D02*
X17957Y64562D01*
X18295Y68224D02*
X19795Y66724D01*
Y63724D02*
Y66724D01*
Y63724D02*
X20795Y62724D01*
X23795D01*
X24795Y63724D01*
Y66724D01*
X22295Y71224D02*
X24295Y69224D01*
X20295D02*
X22295Y71224D01*
X24295Y69224D02*
X27795Y74724D01*
X25295Y75224D02*
X27795Y77724D01*
Y74724D02*
Y77724D01*
X28795Y66724D02*
Y70724D01*
X24795Y66724D02*
X26295Y68224D01*
X26561Y64508D02*
X28724Y66671D01*
X19295Y75224D02*
X19795D01*
D11*
X17099Y60180D02*
X18017Y58343D01*
X18935Y60180D01*
X19854Y58343D02*
X20772D01*
X20313D01*
Y61098D01*
X19854Y60639D01*
X22150Y58343D02*
Y58802D01*
X22609D01*
Y58343D01*
X22150D01*
X24445Y60639D02*
X24904Y61098D01*
X25823D01*
X26282Y60639D01*
Y58802D01*
X25823Y58343D01*
X24904D01*
X24445Y58802D01*
Y60639D01*
D12*
X58964Y56609D02*
D03*
X69363Y56510D02*
D03*
Y49409D02*
D03*
X58964D02*
D03*
D13*
X76986Y67323D02*
D03*
Y68898D02*
D03*
Y70473D02*
D03*
Y72047D02*
D03*
Y73622D02*
D03*
Y75197D02*
D03*
Y76772D02*
D03*
Y78347D02*
D03*
Y79921D02*
D03*
Y81496D02*
D03*
Y83071D02*
D03*
Y84646D02*
D03*
Y86221D02*
D03*
Y87795D02*
D03*
X49786D02*
D03*
Y86221D02*
D03*
Y84646D02*
D03*
Y83071D02*
D03*
Y81496D02*
D03*
Y79921D02*
D03*
Y78347D02*
D03*
Y76772D02*
D03*
Y75197D02*
D03*
Y73622D02*
D03*
Y72047D02*
D03*
Y70473D02*
D03*
Y68898D02*
D03*
Y67323D02*
D03*
D14*
X73622Y91159D02*
D03*
X72047D02*
D03*
X70472D02*
D03*
X68898D02*
D03*
X67323D02*
D03*
X65748D02*
D03*
X64173D02*
D03*
X62598D02*
D03*
X61024D02*
D03*
X59449D02*
D03*
X57874D02*
D03*
X56299D02*
D03*
X54724D02*
D03*
X53150D02*
D03*
Y63959D02*
D03*
X54724D02*
D03*
X56299D02*
D03*
X57874D02*
D03*
X59449D02*
D03*
X61024D02*
D03*
X62598D02*
D03*
X64173D02*
D03*
X65748D02*
D03*
X67323D02*
D03*
X68898D02*
D03*
X70472D02*
D03*
X72047D02*
D03*
X73622D02*
D03*
D15*
X63386Y77559D02*
D03*
D16*
X67165Y42118D02*
D03*
X61221D02*
D03*
X49102Y56279D02*
D03*
X43158D02*
D03*
X49070Y49342D02*
D03*
X43125D02*
D03*
X49102Y42188D02*
D03*
X43158D02*
D03*
X20612Y103378D02*
D03*
X26557D02*
D03*
X20612Y96426D02*
D03*
X26557D02*
D03*
X95525Y72000D02*
D03*
X101470D02*
D03*
X95436Y80160D02*
D03*
X101381D02*
D03*
X59646Y98496D02*
D03*
X65591D02*
D03*
X105345Y105886D02*
D03*
X111290D02*
D03*
D17*
X102517Y58468D02*
D03*
Y64413D02*
D03*
X95884Y58468D02*
D03*
Y64413D02*
D03*
X89384Y58468D02*
D03*
Y64413D02*
D03*
X83071Y50597D02*
D03*
Y56542D02*
D03*
X76769D02*
D03*
Y50597D02*
D03*
X75371Y12402D02*
D03*
Y18347D02*
D03*
X54850Y18833D02*
D03*
Y12888D02*
D03*
X47549Y18833D02*
D03*
Y12888D02*
D03*
X96099Y113504D02*
D03*
Y107559D02*
D03*
X88307Y122835D02*
D03*
Y128779D02*
D03*
Y107638D02*
D03*
Y113583D02*
D03*
D18*
X105778Y112146D02*
D03*
X110896D02*
D03*
X108337Y118445D02*
D03*
D19*
X78347Y125197D02*
D03*
X75590D02*
D03*
X72835D02*
D03*
X67323D02*
D03*
X70079D02*
D03*
X59055D02*
D03*
X56299D02*
D03*
X61811D02*
D03*
X64567D02*
D03*
X50787D02*
D03*
X48031D02*
D03*
X53543D02*
D03*
D20*
X115109Y22983D02*
D03*
X109523Y17397D02*
D03*
X103937Y11811D02*
D03*
X12056Y136859D02*
D03*
X17642Y142445D02*
D03*
X23228Y148031D02*
D03*
X115109Y136859D02*
D03*
X109523Y142445D02*
D03*
X103937Y148031D02*
D03*
X23228Y11811D02*
D03*
X17642Y17397D02*
D03*
X12056Y22983D02*
D03*
D21*
X11753Y98378D02*
D03*
Y103378D02*
D03*
D22*
X11754Y108379D02*
D03*
M02*
